<?xml version="1.0" encoding="utf-8"?>
<!-- created with bpmn-js / http://bpmn.io -->
<!DOCTYPE svg PUBLIC "-//W3C//DTD SVG 1.1//EN" "http://www.w3.org/Graphics/SVG/1.1/DTD/svg11.dtd">
<svg xmlns="http://www.w3.org/2000/svg" xmlns:xlink="http://www.w3.org/1999/xlink" width="1412" height="362" viewBox="-326 -162 1412 362" version="1.1"><defs><marker id="sequenceflow-end-rgb_172_172_172_-rgb_172_172_172_-84x2a7qunn1o4ww6sz6n9dhoe" viewBox="0 0 20 20" refX="11" refY="10" markerWidth="10" markerHeight="10" orient="auto"><path d="M 1 5 L 11 10 L 1 15 Z" style="fill: rgb(172, 172, 172); stroke-width: 1px; stroke-linecap: round; stroke-dasharray: 10000, 1; stroke: rgb(172, 172, 172);"/></marker></defs><g class="djs-group"><g class="djs-element djs-connection" data-element-id="Flow_0cm7sr8" style="display: block;"><g class="djs-visual"><path d="m  450,-5L450,-50 L710,-50 L710,20 L735,20 " style="fill: none; stroke-width: 2px; stroke: rgb(172, 172, 172); stroke-linejoin: round; marker-end: url('#sequenceflow-end-rgb_172_172_172_-rgb_172_172_172_-84x2a7qunn1o4ww6sz6n9dhoe');"/></g><polyline points="450,-5 450,-50 710,-50 710,20 735,20 " class="djs-hit djs-hit-stroke" style="fill: none; stroke-opacity: 0; stroke: white; stroke-width: 15px;"/><rect x="444" y="-56" rx="3" width="297" height="82" class="djs-outline" style="fill: none;"/></g></g><g class="djs-group"><g class="djs-element djs-connection" data-element-id="Flow_1i2eudp" style="display: block;"><g class="djs-visual"><path d="m  475,20L560,20 " style="fill: none; stroke-width: 2px; stroke: rgb(172, 172, 172); stroke-linejoin: round; marker-end: url('#sequenceflow-end-rgb_172_172_172_-rgb_172_172_172_-84x2a7qunn1o4ww6sz6n9dhoe');"/></g><polyline points="475,20 560,20 " class="djs-hit djs-hit-stroke" style="fill: none; stroke-opacity: 0; stroke: white; stroke-width: 15px;"/><rect x="469" y="14" rx="3" width="97" height="12" class="djs-outline" style="fill: none;"/></g></g><g class="djs-group"><g class="djs-element djs-connection" data-element-id="Flow_0gz14oy" style="display: block;"><g class="djs-visual"><path d="m  970,155L970,180 L580,180 L580,150 " style="fill: none; stroke-width: 2px; stroke: rgb(172, 172, 172); stroke-linejoin: round; marker-end: url('#sequenceflow-end-rgb_172_172_172_-rgb_172_172_172_-84x2a7qunn1o4ww6sz6n9dhoe');"/></g><polyline points="970,155 970,180 580,180 580,150 " class="djs-hit djs-hit-stroke" style="fill: none; stroke-opacity: 0; stroke: white; stroke-width: 15px;"/><rect x="574" y="144" rx="3" width="402" height="42" class="djs-outline" style="fill: none;"/></g></g><g class="djs-group"><g class="djs-element djs-connection" data-element-id="Flow_1d5dv0e" style="display: block;"><g class="djs-visual"><path d="m  945,130L830,130 " style="fill: none; stroke-width: 2px; stroke: rgb(172, 172, 172); stroke-linejoin: round; marker-end: url('#sequenceflow-end-rgb_172_172_172_-rgb_172_172_172_-84x2a7qunn1o4ww6sz6n9dhoe');"/></g><polyline points="945,130 830,130 " class="djs-hit djs-hit-stroke" style="fill: none; stroke-opacity: 0; stroke: white; stroke-width: 15px;"/><rect x="824" y="124" rx="3" width="127" height="12" class="djs-outline" style="fill: none;"/></g></g><g class="djs-group"><g class="djs-element djs-connection" data-element-id="Flow_0xaa13q" style="display: block;"><g class="djs-visual"><path d="m  760,-5L760,-50 L1080,-50 L1080,130 L995,130 " style="fill: none; stroke-width: 2px; stroke: rgb(172, 172, 172); stroke-linejoin: round; marker-end: url('#sequenceflow-end-rgb_172_172_172_-rgb_172_172_172_-84x2a7qunn1o4ww6sz6n9dhoe');"/></g><polyline points="760,-5 760,-50 1080,-50 1080,130 995,130 " class="djs-hit djs-hit-stroke" style="fill: none; stroke-opacity: 0; stroke: white; stroke-width: 15px;"/><rect x="754" y="-56" rx="3" width="332" height="192" class="djs-outline" style="fill: none;"/></g></g><g class="djs-group"><g class="djs-element djs-connection" data-element-id="Flow_1qnto7a" style="display: block;"><g class="djs-visual"><path d="m  785,20L900,20 " style="fill: none; stroke-width: 2px; stroke: rgb(172, 172, 172); stroke-linejoin: round; marker-end: url('#sequenceflow-end-rgb_172_172_172_-rgb_172_172_172_-84x2a7qunn1o4ww6sz6n9dhoe');"/></g><polyline points="785,20 900,20 " class="djs-hit djs-hit-stroke" style="fill: none; stroke-opacity: 0; stroke: white; stroke-width: 15px;"/><rect x="779" y="14" rx="3" width="127" height="12" class="djs-outline" style="fill: none;"/></g></g><g class="djs-group"><g class="djs-element djs-connection" data-element-id="Flow_0qyuuke" style="display: block;"><g class="djs-visual"><path d="m  -30,-5L-30,-110 L330,-110 L330,0 " style="fill: none; stroke-width: 2px; stroke: rgb(172, 172, 172); stroke-linejoin: round; marker-end: url('#sequenceflow-end-rgb_172_172_172_-rgb_172_172_172_-84x2a7qunn1o4ww6sz6n9dhoe');"/></g><polyline points="-30,-5 -30,-110 330,-110 330,0 " class="djs-hit djs-hit-stroke" style="fill: none; stroke-opacity: 0; stroke: white; stroke-width: 15px;"/><rect x="-36" y="-116" rx="3" width="372" height="122" class="djs-outline" style="fill: none;"/></g></g><g class="djs-group"><g class="djs-element djs-connection" data-element-id="Flow_068oevp" style="display: block;"><g class="djs-visual"><path d="m  -5,20L110,20 " style="fill: none; stroke-width: 2px; stroke: rgb(172, 172, 172); stroke-linejoin: round; marker-end: url('#sequenceflow-end-rgb_172_172_172_-rgb_172_172_172_-84x2a7qunn1o4ww6sz6n9dhoe');"/></g><polyline points="-5,20 110,20 " class="djs-hit djs-hit-stroke" style="fill: none; stroke-opacity: 0; stroke: white; stroke-width: 15px;"/><rect x="-11" y="14" rx="3" width="127" height="12" class="djs-outline" style="fill: none;"/></g></g><g class="djs-group"><g class="djs-element djs-connection" data-element-id="Flow_0p35iut" style="display: block;"><g class="djs-visual"><path d="m  390,20L425,20 " style="fill: none; stroke-width: 2px; stroke: rgb(172, 172, 172); stroke-linejoin: round; marker-end: url('#sequenceflow-end-rgb_172_172_172_-rgb_172_172_172_-84x2a7qunn1o4ww6sz6n9dhoe');"/></g><polyline points="390,20 425,20 " class="djs-hit djs-hit-stroke" style="fill: none; stroke-opacity: 0; stroke: white; stroke-width: 15px;"/><rect x="384" y="14" rx="3" width="47" height="12" class="djs-outline" style="fill: none;"/></g></g><g class="djs-group"><g class="djs-element djs-connection" data-element-id="Flow_0wap8hm" style="display: block;"><g class="djs-visual"><path d="m  330,130L250,130 " style="fill: none; stroke-width: 2px; stroke: rgb(172, 172, 172); stroke-linejoin: round; marker-end: url('#sequenceflow-end-rgb_172_172_172_-rgb_172_172_172_-84x2a7qunn1o4ww6sz6n9dhoe');"/></g><polyline points="330,130 250,130 " class="djs-hit djs-hit-stroke" style="fill: none; stroke-opacity: 0; stroke: white; stroke-width: 15px;"/><rect x="244" y="124" rx="3" width="92" height="12" class="djs-outline" style="fill: none;"/></g></g><g class="djs-group"><g class="djs-element djs-connection" data-element-id="Flow_1dbi8l6" style="display: block;"><g class="djs-visual"><path d="m  1020,20L1040,20 L1040,130 L995,130 " style="fill: none; stroke-width: 2px; stroke: rgb(172, 172, 172); stroke-linejoin: round; marker-end: url('#sequenceflow-end-rgb_172_172_172_-rgb_172_172_172_-84x2a7qunn1o4ww6sz6n9dhoe');"/></g><polyline points="1020,20 1040,20 1040,130 995,130 " class="djs-hit djs-hit-stroke" style="fill: none; stroke-opacity: 0; stroke: white; stroke-width: 15px;"/><rect x="989" y="14" rx="3" width="57" height="122" class="djs-outline" style="fill: none;"/></g></g><g class="djs-group"><g class="djs-element djs-connection" data-element-id="Flow_1xo3fh7" style="display: block;"><g class="djs-visual"><path d="m  680,20L735,20 " style="fill: none; stroke-width: 2px; stroke: rgb(172, 172, 172); stroke-linejoin: round; marker-end: url('#sequenceflow-end-rgb_172_172_172_-rgb_172_172_172_-84x2a7qunn1o4ww6sz6n9dhoe');"/></g><polyline points="680,20 735,20 " class="djs-hit djs-hit-stroke" style="fill: none; stroke-opacity: 0; stroke: white; stroke-width: 15px;"/><rect x="674" y="14" rx="3" width="67" height="12" class="djs-outline" style="fill: none;"/></g></g><g class="djs-group"><g class="djs-element djs-connection" data-element-id="Flow_1dftdee" style="display: block;"><g class="djs-visual"><path d="m  -90,20L-55,20 " style="fill: none; stroke-width: 2px; stroke: rgb(172, 172, 172); stroke-linejoin: round; marker-end: url('#sequenceflow-end-rgb_172_172_172_-rgb_172_172_172_-84x2a7qunn1o4ww6sz6n9dhoe');"/></g><polyline points="-90,20 -55,20 " class="djs-hit djs-hit-stroke" style="fill: none; stroke-opacity: 0; stroke: white; stroke-width: 15px;"/><rect x="-96" y="14" rx="3" width="47" height="12" class="djs-outline" style="fill: none;"/></g></g><g class="djs-group"><g class="djs-element djs-connection" data-element-id="Flow_113d1v5" style="display: block;"><g class="djs-visual"><path d="m  520,130L450,130 " style="fill: none; stroke-width: 2px; stroke: rgb(172, 172, 172); stroke-linejoin: round; marker-end: url('#sequenceflow-end-rgb_172_172_172_-rgb_172_172_172_-84x2a7qunn1o4ww6sz6n9dhoe');"/></g><polyline points="520,130 450,130 " class="djs-hit djs-hit-stroke" style="fill: none; stroke-opacity: 0; stroke: white; stroke-width: 15px;"/><rect x="444" y="124" rx="3" width="82" height="12" class="djs-outline" style="fill: none;"/></g></g><g class="djs-group"><g class="djs-element djs-connection" data-element-id="Flow_152iqo4" style="display: block;"><g class="djs-visual"><path d="m  710,130L640,130 " style="fill: none; stroke-width: 2px; stroke: rgb(172, 172, 172); stroke-linejoin: round; marker-end: url('#sequenceflow-end-rgb_172_172_172_-rgb_172_172_172_-84x2a7qunn1o4ww6sz6n9dhoe');"/></g><polyline points="710,130 640,130 " class="djs-hit djs-hit-stroke" style="fill: none; stroke-opacity: 0; stroke: white; stroke-width: 15px;"/><rect x="634" y="124" rx="3" width="82" height="12" class="djs-outline" style="fill: none;"/></g></g><g class="djs-group"><g class="djs-element djs-connection" data-element-id="Flow_12y3c9i" style="display: block;"><g class="djs-visual"><path d="m  230,20L270,20 " style="fill: none; stroke-width: 2px; stroke: rgb(172, 172, 172); stroke-linejoin: round; marker-end: url('#sequenceflow-end-rgb_172_172_172_-rgb_172_172_172_-84x2a7qunn1o4ww6sz6n9dhoe');"/></g><polyline points="230,20 270,20 " class="djs-hit djs-hit-stroke" style="fill: none; stroke-opacity: 0; stroke: white; stroke-width: 15px;"/><rect x="224" y="14" rx="3" width="52" height="12" class="djs-outline" style="fill: none;"/></g></g><g class="djs-group"><g class="djs-element djs-connection" data-element-id="_0d4bbb28-292c-46c3-a328-fc680efb7989" style="display: block;"><g class="djs-visual"><path d="m  -280,20L-210,20 " style="fill: none; stroke-width: 2px; stroke: rgb(172, 172, 172); stroke-linejoin: round; marker-end: url('#sequenceflow-end-rgb_172_172_172_-rgb_172_172_172_-84x2a7qunn1o4ww6sz6n9dhoe');"/></g><polyline points="-280,20 -210,20 " class="djs-hit djs-hit-stroke" style="fill: none; stroke-opacity: 0; stroke: white; stroke-width: 15px;"/><rect x="-286" y="14" rx="3" width="82" height="12" class="djs-outline" style="fill: none;"/></g></g><g class="djs-group"><g class="djs-element djs-shape" data-element-id="_7ef4eda1-1f1d-4656-839a-fde41dc24f2b" style="display: block;" transform="matrix(1 0 0 1 -320 0)"><g class="djs-visual"><circle cx="20" cy="20" r="20" rx="4" ry="4" style="stroke: rgb(240, 204, 150); stroke-width: 1px; fill: rgb(255, 249, 241); fill-opacity: 0.95;"/></g><rect class="djs-hit djs-hit-all" x="0" y="0" width="40" height="40" style="fill: none; stroke-opacity: 0; stroke: white; stroke-width: 15px;"/><rect x="-6" y="-6" rx="3" width="52" height="52" class="djs-outline" style="fill: none;"/></g></g><g class="djs-group"><g class="djs-element djs-shape" data-element-id="_7ef4eda1-1f1d-4656-839a-fde41dc24f2b_label" style="display: block;" transform="matrix(1 0 0 1 -313 47)"><g class="djs-visual"><text lineHeight="1.2" class="djs-label" style="font-family: 'Microsoft YaHei'; font-size: 13px; font-weight: 400; fill: rgb(51, 51, 51);"><tspan x="0" y="11.7">开始</tspan></text></g><rect class="djs-hit djs-hit-all" x="0" y="0" width="26" height="16" style="fill: none; stroke-opacity: 0; stroke: white; stroke-width: 15px;"/><rect x="-6" y="-6" rx="3" width="38" height="28" class="djs-outline" style="fill: none;"/></g></g><g class="djs-group"><g class="djs-element djs-shape" data-element-id="_ededcad8-aff5-4cee-8ecd-a86cd56168e6" style="display: block;" transform="matrix(1 0 0 1 -210 0)"><g class="djs-visual"><rect x="0" y="0" width="120" height="40" rx="4" ry="4" style="stroke: rgb(0, 173, 238); stroke-width: 1px; fill: rgb(237, 249, 255); fill-opacity: 0.95;"/><text lineHeight="1.2" class="djs-label" style="font-family: 'Microsoft YaHei'; font-size: 14px; font-weight: 400; fill: rgb(51, 51, 51);"><tspan x="39" y="24.2">申请中</tspan></text></g><rect class="djs-hit djs-hit-all" x="0" y="0" width="120" height="40" style="fill: none; stroke-opacity: 0; stroke: white; stroke-width: 15px;"/><rect x="-6" y="-6" rx="3" width="132" height="52" class="djs-outline" style="fill: none;"/></g></g><g class="djs-group"><g class="djs-element djs-shape" data-element-id="_3e8b4361-ef04-4a3f-862f-a5ad16f15276" style="display: block;" transform="matrix(1 0 0 1 110 0)"><g class="djs-visual"><rect x="0" y="0" width="120" height="40" rx="4" ry="4" style="stroke: rgb(0, 173, 238); stroke-width: 1px; fill: rgb(237, 249, 255); fill-opacity: 0.95;"/><text lineHeight="1.2" class="djs-label" style="font-family: 'Microsoft YaHei'; font-size: 14px; font-weight: 400; fill: rgb(51, 51, 51);"><tspan x="25" y="24.2">办公室预定</tspan></text><path d="m54,20 m 3,2 l 0,10 m 3,-10 l 0,10 m 3,-10 l 0,10" data-marker="parallel" style="fill: rgb(255, 249, 241); stroke-width: 2px; stroke: rgb(51, 51, 51); transform: translate(0px, 6px);"/></g><rect class="djs-hit djs-hit-all" x="0" y="0" width="120" height="40" style="fill: none; stroke-opacity: 0; stroke: white; stroke-width: 15px;"/><rect x="-6" y="-6" rx="3" width="132" height="52" class="djs-outline" style="fill: none;"/></g></g><g class="djs-group"><g class="djs-element djs-shape" data-element-id="Activity_0ms65i5" style="display: block;" transform="matrix(1 0 0 1 270 0)"><g class="djs-visual"><rect x="0" y="0" width="120" height="40" rx="4" ry="4" style="stroke: rgb(0, 173, 238); stroke-width: 1px; fill: rgb(237, 249, 255); fill-opacity: 0.95;"/><text lineHeight="1.2" class="djs-label" style="font-family: 'Microsoft YaHei'; font-size: 14px; font-weight: 400; fill: rgb(51, 51, 51);"><tspan x="24.5" y="24.2">财务部预算</tspan></text><path d="m54,20 m 3,2 l 0,10 m 3,-10 l 0,10 m 3,-10 l 0,10" data-marker="parallel" style="fill: rgb(255, 249, 241); stroke-width: 2px; stroke: rgb(51, 51, 51); transform: translate(0px, 6px);"/></g><rect class="djs-hit djs-hit-all" x="0" y="0" width="120" height="40" style="fill: none; stroke-opacity: 0; stroke: white; stroke-width: 15px;"/><rect x="-6" y="-6" rx="3" width="132" height="52" class="djs-outline" style="fill: none;"/></g></g><g class="djs-group"><g class="djs-element djs-shape" data-element-id="Activity_02i5xiq" style="display: block;" transform="matrix(1 0 0 1 560 0)"><g class="djs-visual"><rect x="0" y="0" width="120" height="40" rx="4" ry="4" style="stroke: rgb(0, 173, 238); stroke-width: 1px; fill: rgb(237, 249, 255); fill-opacity: 0.95;"/><text lineHeight="1.2" class="djs-label" style="font-family: 'Microsoft YaHei'; font-size: 14px; font-weight: 400; fill: rgb(51, 51, 51);"><tspan x="32" y="24.2">经理审批</tspan></text><path d="m54,20 m 3,2 l 0,10 m 3,-10 l 0,10 m 3,-10 l 0,10" data-marker="parallel" style="fill: rgb(255, 249, 241); stroke-width: 2px; stroke: rgb(51, 51, 51); transform: translate(0px, 6px);"/></g><rect class="djs-hit djs-hit-all" x="0" y="0" width="120" height="40" style="fill: none; stroke-opacity: 0; stroke: white; stroke-width: 15px;"/><rect x="-6" y="-6" rx="3" width="132" height="52" class="djs-outline" style="fill: none;"/></g></g><g class="djs-group"><g class="djs-element djs-shape" data-element-id="Activity_0gyrghm" style="display: block;" transform="matrix(1 0 0 1 900 0)"><g class="djs-visual"><rect x="0" y="0" width="120" height="40" rx="4" ry="4" style="stroke: rgb(0, 173, 238); stroke-width: 1px; fill: rgb(237, 249, 255); fill-opacity: 0.95;"/><text lineHeight="1.2" class="djs-label" style="font-family: 'Microsoft YaHei'; font-size: 14px; font-weight: 400; fill: rgb(51, 51, 51);"><tspan x="25" y="24.2">总经理审批</tspan></text><path d="m54,20 m 3,2 l 0,10 m 3,-10 l 0,10 m 3,-10 l 0,10" data-marker="parallel" style="fill: rgb(255, 249, 241); stroke-width: 2px; stroke: rgb(51, 51, 51); transform: translate(0px, 6px);"/></g><rect class="djs-hit djs-hit-all" x="0" y="0" width="120" height="40" style="fill: none; stroke-opacity: 0; stroke: white; stroke-width: 15px;"/><rect x="-6" y="-6" rx="3" width="132" height="52" class="djs-outline" style="fill: none;"/></g></g><g class="djs-group"><g class="djs-element djs-shape" data-element-id="Activity_0h6m7bz" style="display: block;" transform="matrix(1 0 0 1 710 110)"><g class="djs-visual"><rect x="0" y="0" width="120" height="40" rx="4" ry="4" style="stroke: rgb(0, 173, 238); stroke-width: 1px; fill: rgb(237, 249, 255); fill-opacity: 0.95;"/><text lineHeight="1.2" class="djs-label" style="font-family: 'Microsoft YaHei'; font-size: 14px; font-weight: 400; fill: rgb(51, 51, 51);"><tspan x="24.5" y="24.2">财务部借支</tspan></text><path d="m54,20 m 3,2 l 0,10 m 3,-10 l 0,10 m 3,-10 l 0,10" data-marker="parallel" style="fill: rgb(255, 249, 241); stroke-width: 2px; stroke: rgb(51, 51, 51); transform: translate(0px, 6px);"/></g><rect class="djs-hit djs-hit-all" x="0" y="0" width="120" height="40" style="fill: none; stroke-opacity: 0; stroke: white; stroke-width: 15px;"/><rect x="-6" y="-6" rx="3" width="132" height="52" class="djs-outline" style="fill: none;"/></g></g><g class="djs-group"><g class="djs-element djs-shape" data-element-id="Activity_1ryjvdj" style="display: block;" transform="matrix(1 0 0 1 520 110)"><g class="djs-visual"><rect x="0" y="0" width="120" height="40" rx="4" ry="4" style="stroke: rgb(0, 173, 238); stroke-width: 1px; fill: rgb(237, 249, 255); fill-opacity: 0.95;"/><text lineHeight="1.2" class="djs-label" style="font-family: 'Microsoft YaHei'; font-size: 14px; font-weight: 400; fill: rgb(51, 51, 51);"><tspan x="32.5" y="24.2">票据报销</tspan></text><path d="m54,20 m 3,2 l 0,10 m 3,-10 l 0,10 m 3,-10 l 0,10" data-marker="parallel" style="fill: rgb(255, 249, 241); stroke-width: 2px; stroke: rgb(51, 51, 51); transform: translate(0px, 6px);"/></g><rect class="djs-hit djs-hit-all" x="0" y="0" width="120" height="40" style="fill: none; stroke-opacity: 0; stroke: white; stroke-width: 15px;"/><rect x="-6" y="-6" rx="3" width="132" height="52" class="djs-outline" style="fill: none;"/></g></g><g class="djs-group"><g class="djs-element djs-shape" data-element-id="Activity_1r5rzpk" style="display: block;" transform="matrix(1 0 0 1 330 110)"><g class="djs-visual"><rect x="0" y="0" width="120" height="40" rx="4" ry="4" style="stroke: rgb(0, 173, 238); stroke-width: 1px; fill: rgb(237, 249, 255); fill-opacity: 0.95;"/><text lineHeight="1.2" class="djs-label" style="font-family: 'Microsoft YaHei'; font-size: 14px; font-weight: 400; fill: rgb(51, 51, 51);"><tspan x="24.5" y="24.2">财务部结算</tspan></text><path d="m54,20 m 3,2 l 0,10 m 3,-10 l 0,10 m 3,-10 l 0,10" data-marker="parallel" style="fill: rgb(255, 249, 241); stroke-width: 2px; stroke: rgb(51, 51, 51); transform: translate(0px, 6px);"/></g><rect class="djs-hit djs-hit-all" x="0" y="0" width="120" height="40" style="fill: none; stroke-opacity: 0; stroke: white; stroke-width: 15px;"/><rect x="-6" y="-6" rx="3" width="132" height="52" class="djs-outline" style="fill: none;"/></g></g><g class="djs-group"><g class="djs-element djs-shape" data-element-id="Gateway_1p2fzzg" style="display: block;" transform="matrix(1 0 0 1 -55 -5)"><g class="djs-visual"><polygon points="25,0 50,25 25,50 0,25" rx="4" ry="4" style="stroke: rgb(240, 204, 150); stroke-width: 1px; fill: rgb(255, 249, 241); fill-opacity: 0.95;"/><path d="m 16,15 7.42857142857143,9.714285714285715 -7.42857142857143,9.714285714285715 3.428571428571429,0 5.714285714285715,-7.464228571428572 5.714285714285715,7.464228571428572 3.428571428571429,0 -7.42857142857143,-9.714285714285715 7.42857142857143,-9.714285714285715 -3.428571428571429,0 -5.714285714285715,7.464228571428572 -5.714285714285715,-7.464228571428572 -3.428571428571429,0 z" style="fill: rgb(240, 204, 150); stroke-width: 1px; stroke: rgb(240, 204, 150);"/></g><rect class="djs-hit djs-hit-all" x="0" y="0" width="50" height="50" style="fill: none; stroke-opacity: 0; stroke: white; stroke-width: 15px;"/><rect x="-6" y="-6" rx="3" width="62" height="62" class="djs-outline" style="fill: none;"/></g></g><g class="djs-group"><g class="djs-element djs-shape" data-element-id="Gateway_1bjnk4x" style="display: block;" transform="matrix(1 0 0 1 735 -5)"><g class="djs-visual"><polygon points="25,0 50,25 25,50 0,25" rx="4" ry="4" style="stroke: rgb(240, 204, 150); stroke-width: 1px; fill: rgb(255, 249, 241); fill-opacity: 0.95;"/><path d="m 16,15 7.42857142857143,9.714285714285715 -7.42857142857143,9.714285714285715 3.428571428571429,0 5.714285714285715,-7.464228571428572 5.714285714285715,7.464228571428572 3.428571428571429,0 -7.42857142857143,-9.714285714285715 7.42857142857143,-9.714285714285715 -3.428571428571429,0 -5.714285714285715,7.464228571428572 -5.714285714285715,-7.464228571428572 -3.428571428571429,0 z" style="fill: rgb(240, 204, 150); stroke-width: 1px; stroke: rgb(240, 204, 150);"/></g><rect class="djs-hit djs-hit-all" x="0" y="0" width="50" height="50" style="fill: none; stroke-opacity: 0; stroke: white; stroke-width: 15px;"/><rect x="-6" y="-6" rx="3" width="62" height="62" class="djs-outline" style="fill: none;"/></g></g><g class="djs-group"><g class="djs-element djs-shape" data-element-id="Gateway_177dynq" style="display: block;" transform="matrix(1 0 0 1 945 105)"><g class="djs-visual"><polygon points="25,0 50,25 25,50 0,25" rx="4" ry="4" style="stroke: rgb(240, 204, 150); stroke-width: 1px; fill: rgb(255, 249, 241); fill-opacity: 0.95;"/><path d="m 16,15 7.42857142857143,9.714285714285715 -7.42857142857143,9.714285714285715 3.428571428571429,0 5.714285714285715,-7.464228571428572 5.714285714285715,7.464228571428572 3.428571428571429,0 -7.42857142857143,-9.714285714285715 7.42857142857143,-9.714285714285715 -3.428571428571429,0 -5.714285714285715,7.464228571428572 -5.714285714285715,-7.464228571428572 -3.428571428571429,0 z" style="fill: rgb(240, 204, 150); stroke-width: 1px; stroke: rgb(240, 204, 150);"/></g><rect class="djs-hit djs-hit-all" x="0" y="0" width="50" height="50" style="fill: none; stroke-opacity: 0; stroke: white; stroke-width: 15px;"/><rect x="-6" y="-6" rx="3" width="62" height="62" class="djs-outline" style="fill: none;"/></g></g><g class="djs-group"><g class="djs-element djs-shape" data-element-id="_f8149b90-b61c-4b13-84ed-8381b0c84346" style="display: block;" transform="matrix(1 0 0 1 210 110)"><g class="djs-visual"><circle cx="20" cy="20" r="20" rx="4" ry="4" style="stroke: rgb(240, 204, 150); stroke-width: 4px; fill: rgb(255, 249, 241); fill-opacity: 0.95;"/></g><rect class="djs-hit djs-hit-all" x="0" y="0" width="40" height="40" style="fill: none; stroke-opacity: 0; stroke: white; stroke-width: 15px;"/><rect x="-6" y="-6" rx="3" width="52" height="52" class="djs-outline" style="fill: none;"/></g></g><g class="djs-group"><g class="djs-element djs-shape" data-element-id="_f8149b90-b61c-4b13-84ed-8381b0c84346_label" style="display: block;" transform="matrix(1 0 0 1 217 157)"><g class="djs-visual"><text lineHeight="1.2" class="djs-label" style="font-family: 'Microsoft YaHei'; font-size: 13px; font-weight: 400; fill: rgb(51, 51, 51);"><tspan x="0" y="11.7">完成</tspan></text></g><rect class="djs-hit djs-hit-all" x="0" y="0" width="27" height="16" style="fill: none; stroke-opacity: 0; stroke: white; stroke-width: 15px;"/><rect x="-6" y="-6" rx="3" width="39" height="28" class="djs-outline" style="fill: none;"/></g></g><g class="djs-group"><g class="djs-element djs-shape" data-element-id="Gateway_0orazjz" style="display: block;" transform="matrix(1 0 0 1 425 -5)"><g class="djs-visual"><polygon points="25,0 50,25 25,50 0,25" rx="4" ry="4" style="stroke: rgb(240, 204, 150); stroke-width: 1px; fill: rgb(255, 249, 241); fill-opacity: 0.95;"/><path d="m 16,15 7.42857142857143,9.714285714285715 -7.42857142857143,9.714285714285715 3.428571428571429,0 5.714285714285715,-7.464228571428572 5.714285714285715,7.464228571428572 3.428571428571429,0 -7.42857142857143,-9.714285714285715 7.42857142857143,-9.714285714285715 -3.428571428571429,0 -5.714285714285715,7.464228571428572 -5.714285714285715,-7.464228571428572 -3.428571428571429,0 z" style="fill: rgb(240, 204, 150); stroke-width: 1px; stroke: rgb(240, 204, 150);"/></g><rect class="djs-hit djs-hit-all" x="0" y="0" width="50" height="50" style="fill: none; stroke-opacity: 0; stroke: white; stroke-width: 15px;"/><rect x="-6" y="-6" rx="3" width="62" height="62" class="djs-outline" style="fill: none;"/></g></g><g class="djs-group"><g class="djs-element djs-shape" data-element-id="Flow_068oevp_label" style="display: block;" transform="matrix(1 0 0 1 14 39)"><g class="djs-visual"><text lineHeight="1.2" class="djs-label" style="font-family: 'Microsoft YaHei'; font-size: 13px; font-weight: 400; fill: rgb(51, 51, 51);"><tspan x="0" y="11.7">需要预定机票</tspan><tspan x="26.5" y="27.299999999999997">酒店</tspan></text></g><rect class="djs-hit djs-hit-all" x="0" y="0" width="78" height="32" style="fill: none; stroke-opacity: 0; stroke: white; stroke-width: 15px;"/><rect x="-6" y="-6" rx="3" width="90" height="44" class="djs-outline" style="fill: none;"/></g></g><g class="djs-group"><g class="djs-element djs-shape" data-element-id="Flow_0qyuuke_label" style="display: block;" transform="matrix(1 0 0 1 111 -156)"><g class="djs-visual"><text lineHeight="1.2" class="djs-label" style="font-family: 'Microsoft YaHei'; font-size: 13px; font-weight: 400; fill: rgb(51, 51, 51);"><tspan x="0" y="11.7">不需要预定机</tspan><tspan x="20" y="27.299999999999997">票酒店</tspan></text></g><rect class="djs-hit djs-hit-all" x="0" y="0" width="78" height="32" style="fill: none; stroke-opacity: 0; stroke: white; stroke-width: 15px;"/><rect x="-6" y="-6" rx="3" width="90" height="44" class="djs-outline" style="fill: none;"/></g></g><g class="djs-group"><g class="djs-element djs-shape" data-element-id="Flow_1qnto7a_label" style="display: block;" transform="matrix(1 0 0 1 804 39)"><g class="djs-visual"><text lineHeight="1.2" class="djs-label" style="font-family: 'Microsoft YaHei'; font-size: 13px; font-weight: 400; fill: rgb(51, 51, 51);"><tspan x="0" y="11.7">部门经理需要</tspan><tspan x="6.5" y="27.299999999999997">总经理审批</tspan></text></g><rect class="djs-hit djs-hit-all" x="0" y="0" width="78" height="32" style="fill: none; stroke-opacity: 0; stroke: white; stroke-width: 15px;"/><rect x="-6" y="-6" rx="3" width="90" height="44" class="djs-outline" style="fill: none;"/></g></g><g class="djs-group"><g class="djs-element djs-shape" data-element-id="Flow_0xaa13q_label" style="display: block;" transform="matrix(1 0 0 1 773 -104)"><g class="djs-visual"><text lineHeight="1.2" class="djs-label" style="font-family: 'Microsoft YaHei'; font-size: 13px; font-weight: 400; fill: rgb(51, 51, 51);"><tspan x="0" y="11.7">非部门经理不</tspan><tspan x="0.5" y="27.299999999999997">需要总经理审</tspan><tspan x="32.5" y="42.9">批</tspan></text></g><rect class="djs-hit djs-hit-all" x="0" y="0" width="78" height="47" style="fill: none; stroke-opacity: 0; stroke: white; stroke-width: 15px;"/><rect x="-6" y="-6" rx="3" width="90" height="59" class="djs-outline" style="fill: none;"/></g></g><g class="djs-group"><g class="djs-element djs-shape" data-element-id="Flow_1d5dv0e_label" style="display: block;" transform="matrix(1 0 0 1 848 112)"><g class="djs-visual"><text lineHeight="1.2" class="djs-label" style="font-family: 'Microsoft YaHei'; font-size: 13px; font-weight: 400; fill: rgb(51, 51, 51);"><tspan x="0" y="11.7">向财务部借款</tspan></text></g><rect class="djs-hit djs-hit-all" x="0" y="0" width="79" height="16" style="fill: none; stroke-opacity: 0; stroke: white; stroke-width: 15px;"/><rect x="-6" y="-6" rx="3" width="91" height="28" class="djs-outline" style="fill: none;"/></g></g><g class="djs-group"><g class="djs-element djs-shape" data-element-id="Flow_0gz14oy_label" style="display: block;" transform="matrix(1 0 0 1 737 162)"><g class="djs-visual"><text lineHeight="1.2" class="djs-label" style="font-family: 'Microsoft YaHei'; font-size: 13px; font-weight: 400; fill: rgb(51, 51, 51);"><tspan x="0" y="11.7">不向财务部借</tspan><tspan x="32" y="27.299999999999997">款</tspan></text></g><rect class="djs-hit djs-hit-all" x="0" y="0" width="77" height="32" style="fill: none; stroke-opacity: 0; stroke: white; stroke-width: 15px;"/><rect x="-6" y="-6" rx="3" width="89" height="44" class="djs-outline" style="fill: none;"/></g></g><g class="djs-group"><g class="djs-element djs-shape" data-element-id="Flow_1i2eudp_label" style="display: block;" transform="matrix(1 0 0 1 492 2)"><g class="djs-visual"><text lineHeight="1.2" class="djs-label" style="font-family: 'Microsoft YaHei'; font-size: 13px; font-weight: 400; fill: rgb(51, 51, 51);"><tspan x="0" y="11.7">经理审批</tspan></text></g><rect class="djs-hit djs-hit-all" x="0" y="0" width="52" height="16" style="fill: none; stroke-opacity: 0; stroke: white; stroke-width: 15px;"/><rect x="-6" y="-6" rx="3" width="64" height="28" class="djs-outline" style="fill: none;"/></g></g><g class="djs-group"><g class="djs-element djs-shape" data-element-id="Flow_0cm7sr8_label" style="display: block;" transform="matrix(1 0 0 1 465 -86)"><g class="djs-visual"><text lineHeight="1.2" class="djs-label" style="font-family: 'Microsoft YaHei'; font-size: 13px; font-weight: 400; fill: rgb(51, 51, 51);"><tspan x="0" y="11.7">总经理不需要</tspan><tspan x="13" y="27.299999999999997">经理审批</tspan></text></g><rect class="djs-hit djs-hit-all" x="0" y="0" width="78" height="32" style="fill: none; stroke-opacity: 0; stroke: white; stroke-width: 15px;"/><rect x="-6" y="-6" rx="3" width="90" height="44" class="djs-outline" style="fill: none;"/></g></g></svg>